<svg width="8" height="6" viewBox="0 0 8 6" fill="none" xmlns="http://www.w3.org/2000/svg">
<path d="M7.85743 0.829458L7.15248 0.139535C7.05743 0.0465117 6.93861 0 6.80396 0C6.66931 0 6.5505 0.0465117 6.45545 0.139535L3.06535 3.45736L1.55248 1.96899C1.45743 1.87597 1.33861 1.82945 1.20396 1.82945C1.06931 1.82945 0.950495 1.87597 0.855446 1.96899L0.150495 2.65891C0.0475248 2.75193 0 2.86821 0 3C0 3.13178 0.0475247 3.24806 0.142574 3.34108L2.01188 5.17054L2.71683 5.86046C2.81188 5.95348 2.93069 6 3.06535 6C3.2 6 3.31881 5.95348 3.41386 5.86046L4.11881 5.17054L7.85743 1.51162C7.95248 1.4186 8 1.30232 8 1.17054C8 1.03876 7.95248 0.922481 7.85743 0.829458Z" fill="#C5C5C5"/>
</svg>
