<svg width="34" height="34" viewBox="0 0 34 34" fill="none" xmlns="http://www.w3.org/2000/svg">
<circle opacity="0.35" cx="9.75954" cy="7.59087" r="6.86794" fill="#C5C5C5"/>
<circle cx="9.76007" cy="7.59079" r="3.25324" fill="#F96A0A"/>
<g clip-path="url(#clip0_602_2)">
<path d="M20.8801 8.51289C20.5156 8.72335 20.2399 9.03037 20.0669 9.38213C19.4255 8.8324 18.4797 8.71618 17.7072 9.1622C17.3426 9.37266 17.0669 9.67968 16.8939 10.0314C16.2525 9.48171 15.3067 9.36549 14.5342 9.8115C14.2114 9.99789 13.9582 10.26 13.785 10.5622L12.111 7.66272C11.5462 6.68439 10.2913 6.34813 9.31293 6.91297C8.33461 7.47781 7.99835 8.73274 8.56319 9.71107L14.55 20.0804L11.4076 20.2686C10.9344 20.297 10.467 20.4379 10.0564 20.675C9.12155 21.2147 8.80115 22.4132 9.34344 23.3525C9.60511 23.8057 10.0269 24.1287 10.532 24.264L19.5781 26.6879C21.6226 27.2365 23.76 26.9545 25.5942 25.8955C28.7731 24.0602 29.8662 19.9806 28.0309 16.8017L23.6782 9.26263C23.1134 8.28431 21.8584 7.94805 20.8801 8.51289ZM27.1439 17.3138C28.6971 20.004 27.7713 23.4559 25.0812 25.009C23.4838 25.9313 21.6241 26.176 19.8435 25.6974L10.7965 23.274C10.5564 23.2104 10.3549 23.0559 10.2274 22.8351C9.9703 22.3899 10.1232 21.819 10.5685 21.562C10.8426 21.4038 11.1531 21.3108 11.4695 21.2913L15.4389 21.0526C15.6158 21.0415 15.7757 20.9397 15.8587 20.7842C15.9424 20.6283 15.9398 20.4394 15.8512 20.2859L9.45017 9.19897C9.168 8.71024 9.33543 8.08262 9.82503 7.79995C10.3146 7.51728 10.9419 7.68613 11.224 8.17482L16.0888 16.6009C16.2302 16.8457 16.5436 16.9297 16.7884 16.7883C17.0332 16.647 17.1172 16.3336 16.9758 16.0888L14.6715 12.0975C14.3893 11.6088 14.5567 10.9812 15.0463 10.6985C15.5359 10.4158 16.1632 10.5847 16.4453 11.0734L18.7497 15.0646C18.891 15.3094 19.2045 15.3934 19.4493 15.2521C19.6941 15.1108 19.778 14.7973 19.6367 14.5525L17.8444 11.4482C17.5622 10.9595 17.7297 10.3318 18.2193 10.0492C18.7089 9.76651 19.3361 9.93536 19.6183 10.424L21.4106 13.5284C21.5519 13.7732 21.8653 13.8572 22.1101 13.7158C22.3549 13.5745 22.4389 13.2611 22.2976 13.0163L21.0173 10.7989C20.7352 10.3102 20.9026 9.68254 21.3922 9.39987C21.8818 9.1172 22.5091 9.28605 22.7912 9.77473L27.1439 17.3138V17.3138Z" fill="#2E2E2E"/>
</g>
<defs>
<clipPath id="clip0_602_2">
<rect width="24.58" height="24.58" fill="white" transform="translate(0 12.2899) rotate(-30)"/>
</clipPath>
</defs>
</svg>
