<svg width="21" height="21" viewBox="0 0 21 21" fill="none" xmlns="http://www.w3.org/2000/svg">
<g clip-path="url(#clip0_25_752)">
<path d="M17.8796 3.04958C15.9069 1.08419 13.2825 0.00112152 10.4894 0C7.70261 0 5.07408 1.08211 3.08835 3.04701C1.09909 5.01528 0.00256348 7.63099 0 10.4027V10.406V10.4079C0.000320435 12.0855 0.441078 13.7779 1.27773 15.3227L0.0286789 21L5.77135 19.6937C7.2258 20.4267 8.84864 20.8132 10.4854 20.8138H10.4896C13.2759 20.8138 15.9044 19.7316 17.8905 17.7665C19.8815 15.7966 20.9785 13.1843 20.9798 10.4108C20.9806 7.65678 19.8798 5.04252 17.8796 3.04958ZM10.4894 19.1748H10.4857C9.01607 19.1742 7.55985 18.8052 6.27475 18.1074L6.00318 17.96L2.18456 18.8286L3.01401 15.059L2.85411 14.7832C2.05911 13.4123 1.63902 11.8989 1.63902 10.4061C1.64207 5.57444 5.61193 1.63902 10.4891 1.63902C12.8453 1.63998 15.0591 2.55338 16.7228 4.21067C18.4117 5.89359 19.3414 8.0953 19.3406 10.4103C19.3387 15.2431 15.368 19.1748 10.4894 19.1748Z" fill="#43CE36"/>
<path d="M7.63523 5.81885H7.17541C7.01535 5.81885 6.75548 5.87877 6.53566 6.11797C6.31568 6.35734 5.6958 6.93588 5.6958 8.11252C5.6958 9.28915 6.55569 10.4261 6.67553 10.5858C6.79553 10.7454 8.33538 13.2371 10.7742 14.1956C12.8011 14.9922 13.2137 14.8338 13.6535 14.7939C14.0934 14.7542 15.0732 14.2155 15.2731 13.6572C15.4731 13.0988 15.4731 12.6201 15.4131 12.5201C15.3531 12.4204 15.193 12.3607 14.9532 12.2412C14.7132 12.1215 13.5372 11.5332 13.3172 11.4532C13.0972 11.3736 12.9373 11.3337 12.7772 11.5732C12.6172 11.8123 12.146 12.3653 12.006 12.5249C11.8661 12.6846 11.7261 12.7047 11.4861 12.585C11.246 12.465 10.4812 12.208 9.56457 11.3934C8.85112 10.7595 8.35605 9.95101 8.21602 9.71165C8.07615 9.47244 8.20112 9.34299 8.32144 9.22363C8.42927 9.1166 8.57491 8.97016 8.69491 8.83061C8.81475 8.6909 8.84888 8.59125 8.92899 8.43167C9.00893 8.27209 8.96888 8.13239 8.90896 8.01286C8.84888 7.89318 8.38841 6.71062 8.175 6.23766H8.17516C7.9954 5.83936 7.80618 5.8259 7.63523 5.81885Z" fill="#43CE36"/>
</g>
<defs>
<clipPath id="clip0_25_752">
<rect width="21" height="21" fill="white"/>
</clipPath>
</defs>
</svg>
